<svg width="32" height="32" viewBox="0 0 32 32" fill="none" xmlns="http://www.w3.org/2000/svg">
<rect width="32" height="32" fill="#9C3AD9"/>
<path d="M23.0563 8.76146C23.249 7.64479 23.5323 6.94167 23.8448 6.94062C24.4292 6.94062 24.9021 9.37917 24.9021 12.3865C24.9021 15.3937 24.4281 17.8333 23.8438 17.8333C23.6042 17.8333 23.3823 17.4167 23.2042 16.725C22.9229 19.2656 22.3386 21.0115 21.6625 21.0115C21.1417 21.0115 20.6698 19.9625 20.3542 18.3094C20.1386 21.4531 19.5969 23.6854 18.9646 23.6854C18.5677 23.6854 18.2042 22.8021 17.9365 21.3615C17.6146 24.3333 16.8688 26.4167 16 26.4167C15.1313 26.4167 14.3844 24.3333 14.0625 21.3615C13.7969 22.8021 13.4375 23.6854 13.0354 23.6854C12.4011 23.6854 11.8604 21.4542 11.6448 18.3094C11.3323 19.9625 10.8615 21.0115 10.3365 21.0115C9.66043 21.0115 9.07605 19.2656 8.79376 16.725C8.61772 17.4208 8.39584 17.8333 8.15522 17.8333C7.5698 17.8333 7.09584 15.3958 7.09584 12.3865C7.09584 9.37708 7.57084 6.9375 8.1573 6.9375C8.4698 6.9375 8.75105 7.64167 8.94689 8.75833C9.2573 6.83333 9.76459 5.58333 10.3375 5.58333C11.0177 5.58333 11.6073 7.35417 11.8865 9.925C12.1594 8.05 12.5719 6.86146 13.0323 6.86146C13.6823 6.86146 14.2344 9.20729 14.4396 12.4792C14.8271 10.8021 15.3854 9.75 16 9.75C16.6146 9.75 17.175 10.8031 17.5625 12.4792C17.7708 9.20729 18.3198 6.86146 18.9698 6.86146C19.4323 6.86146 19.8448 8.05417 20.1156 9.925C20.3948 7.35417 20.9844 5.58333 21.6656 5.58333C22.2354 5.58333 22.7438 6.83333 23.0563 8.76146ZM6.18126 14.2823C5.85209 14.2865 5.58334 13.1979 5.58334 11.851C5.58334 10.5042 5.85209 9.41667 6.18334 9.41667C6.51459 9.41667 6.78543 10.5042 6.78543 11.851C6.78543 13.1979 6.52084 14.2865 6.18334 14.2865L6.18126 14.2823ZM25.8146 14.2823C25.4813 14.2823 25.2136 13.1937 25.2136 11.8469C25.2136 10.5 25.4813 9.4125 25.8146 9.4125C26.1479 9.4125 26.4167 10.5042 26.4167 11.851C26.4167 13.1979 26.1479 14.2865 25.8167 14.2865L25.8146 14.2823Z" fill="white"/>
</svg>
