<svg width="32" height="32" viewBox="0 0 32 32" fill="none" xmlns="http://www.w3.org/2000/svg">
<g clip-path="url(#clip0_92_60)">
<path d="M32.02 0.0200005H0.0200043V32.02H32.02V0.0200005Z" fill="#E62965"/>
<path d="M23.6996 13.4668C23.6996 16.05 23.6996 18.6433 23.6996 21.2265C23.6996 21.7972 23.6195 22.3479 23.3692 22.8686C22.9787 23.6696 22.3379 24.1702 21.4868 24.4205C21.0162 24.5607 20.5256 24.6308 20.035 24.6508C18.7434 24.7109 17.622 23.8398 17.3917 22.5682C17.2015 21.5169 17.7021 20.3654 18.8035 19.8248C19.244 19.6045 19.7146 19.4843 20.1852 19.3842C20.6958 19.2741 21.2165 19.1739 21.7271 19.0538C22.0976 18.9637 22.3479 18.7434 22.418 18.3529C22.438 18.2628 22.438 18.1827 22.438 18.0926C22.438 15.6295 22.438 13.1664 22.438 10.7034C22.438 10.6233 22.428 10.5331 22.408 10.453C22.3579 10.2528 22.2077 10.1226 21.9975 10.1326C21.7772 10.1427 21.5669 10.1827 21.3567 10.2228C20.3254 10.423 19.2941 10.6333 18.2628 10.8435C17.2115 11.0538 16.1602 11.2641 15.0989 11.4843C14.4781 11.6145 13.8573 11.7346 13.2365 11.8648C13.2165 11.8648 13.1965 11.8748 13.1764 11.8848C12.796 11.985 12.6658 12.1652 12.6458 12.5457C12.6458 12.6057 12.6458 12.6658 12.6458 12.7259C12.6458 16.2603 12.6458 19.7947 12.6458 23.3291C12.6458 23.8999 12.5857 24.4606 12.3554 24.9912C11.9749 25.8623 11.3041 26.403 10.403 26.6633C9.92238 26.8035 9.44178 26.8836 8.94115 26.8936C7.63953 26.9437 6.55818 26.0726 6.3379 24.801C6.14766 23.6996 6.64829 22.5081 7.89985 21.9774C8.38045 21.7772 8.89109 21.657 9.40173 21.5569C9.79222 21.4768 10.1827 21.3967 10.5732 21.3166C11.0938 21.2065 11.3642 20.8761 11.3842 20.3454C11.3842 20.2753 11.3842 20.2052 11.3842 20.1452C11.3842 16.1201 11.3842 12.1051 11.3842 8.08008C11.3842 7.90986 11.4042 7.73965 11.4443 7.57945C11.5344 7.18896 11.8147 6.96869 12.1852 6.87857C12.5356 6.78846 12.8861 6.72839 13.2365 6.6583C14.2278 6.45805 15.229 6.2578 16.2203 6.05755C17.2515 5.84728 18.2728 5.64703 19.3041 5.43677C20.2152 5.25655 21.1264 5.06631 22.0375 4.88608C22.3379 4.82601 22.6383 4.76593 22.9387 4.74591C23.3592 4.71587 23.6495 4.9762 23.6896 5.39672C23.6996 5.49685 23.7096 5.59697 23.7096 5.6971C23.6996 8.27031 23.6996 10.8636 23.6996 13.4668Z" fill="white"/>
</g>
<defs>
<clipPath id="clip0_92_60">
<rect width="32" height="32" fill="white"/>
</clipPath>
</defs>
</svg>
