<svg width="32" height="32" viewBox="0 0 32 32" fill="none" xmlns="http://www.w3.org/2000/svg">
<g clip-path="url(#clip0_93_71)">
<path d="M31.97 0.0300007H0.0299988V31.97H31.97V0.0300007Z" fill="#2CBE60"/>
<path d="M16 4.89C9.86 4.89 4.89 9.86 4.89 16C4.89 22.14 9.86 27.11 16 27.11C22.14 27.11 27.11 22.14 27.11 16C27.11 9.86 22.14 4.89 16 4.89ZM21.09 20.91C20.89 21.24 20.46 21.34 20.14 21.14C17.53 19.55 14.25 19.19 10.38 20.07C10.01 20.16 9.64 19.92 9.55 19.55C9.46 19.18 9.7 18.81 10.07 18.72C14.3 17.75 17.93 18.17 20.86 19.96C21.19 20.16 21.29 20.59 21.09 20.91ZM22.45 17.89C22.2 18.3 21.67 18.43 21.26 18.18C18.27 16.34 13.72 15.81 10.19 16.89C9.73 17.03 9.25 16.77 9.11 16.31C8.97 15.85 9.23 15.37 9.69 15.23C13.72 14.01 18.74 14.6 22.17 16.71C22.58 16.95 22.7 17.48 22.45 17.89ZM22.57 14.74C18.99 12.61 13.08 12.42 9.66 13.46C9.11 13.63 8.53 13.32 8.36 12.77C8.19 12.22 8.5 11.64 9.05 11.47C12.97 10.28 19.5 10.51 23.62 12.96C24.11 13.25 24.28 13.89 23.98 14.38C23.7 14.87 23.06 15.03 22.57 14.74Z" fill="white"/>
</g>
<defs>
<clipPath id="clip0_93_71">
<rect width="32" height="32" fill="white"/>
</clipPath>
</defs>
</svg>
